<?xml version="1.0" encoding="UTF-8"?>
<svg width="25px" height="28px" viewBox="0 0 25 28" version="1.1" xmlns="http://www.w3.org/2000/svg" xmlns:xlink="http://www.w3.org/1999/xlink">
    <!-- Generator: sketchtool 60 (101010) - https://sketch.com -->
    <title>44C1C480-982F-4AA1-8F1F-971A2DABDDC8</title>
    <desc>Created with sketchtool.</desc>
    <g id="Design" stroke="none" stroke-width="1" fill="none" fill-rule="evenodd">
        <g id="RAEV-4-Copy" transform="translate(-424.000000, -140.000000)">
            <rect fill="#FFFFFF" x="0" y="0" width="1366" height="768"></rect>
            <path d="M164,114 L791,114 C793.761424,114 796,116.238576 796,119 L796,595 C796,597.761424 793.761424,600 791,600 L164,600 C161.238576,600 159,597.761424 159,595 L159,119 C159,116.238576 161.238576,114 164,114 Z" id="Rectangle" stroke="#ECEBEA" stroke-dasharray="4"></path>
            <g id="Group-4" transform="translate(424.000000, 135.000000)" fill="#62636B" fill-rule="nonzero">
                <g id="gif" transform="translate(0.000000, 5.000000)">
                    <path d="M22.6526113,9.75675808 L21.9976344,9.75675808 L21.9976344,6.59646758 C21.9976344,6.5766093 21.9945146,6.55689957 21.9918899,6.53679368 C21.9908499,6.41130515 21.9509353,6.2880451 21.8650148,6.19053645 L16.605936,0.182785387 C16.6043513,0.181250207 16.6028161,0.180705466 16.6017266,0.179170287 C16.5703793,0.144158293 16.5338321,0.114890842 16.495205,0.089832753 C16.4837654,0.0820082905 16.4722268,0.0756199635 16.4602425,0.0689345051 C16.4267657,0.0508094843 16.3912585,0.0355072127 16.3547113,0.0245628696 C16.3448069,0.0219382081 16.335893,0.0178774112 16.3259886,0.0151537059 C16.286272,0.00589310783 16.2450203,0 16.2032238,0 L3.27835074,0 C2.68814857,0 2.20867739,0.480015918 2.20867739,1.06972288 L2.20867739,9.75651047 L1.55384911,9.75651047 C0.709549992,9.75651047 0.0249590449,10.4408043 0.0249590449,11.285252 L0.0249590449,19.2355992 C0.0249590449,20.0796507 0.709549992,20.7646378 1.55384911,20.7646378 L2.20872691,20.7646378 L2.20872691,26.2069972 C2.20872691,26.7966546 2.68819809,27.2767201 3.27840027,27.2767201 L20.9280106,27.2767201 C21.517668,27.2767201 21.997684,26.7967041 21.997684,26.2069972 L21.997684,20.7646378 L22.6526608,20.7646378 C23.4967123,20.7646378 24.1814518,20.0798983 24.1814518,19.2358963 L24.1814518,11.2855491 C24.1814518,10.4411014 23.4966628,9.75675808 22.6526113,9.75675808 Z M20.9280106,25.9174425 L3.27835074,25.9174425 L3.27835074,20.7646378 L20.9280106,20.7646378 L20.9280106,25.9174425 L20.9280106,25.9174425 Z M8.06409904,17.9766035 C8.47894412,17.9766035 8.81098856,17.9296073 8.95306693,17.8585433 L8.95306693,16.1877234 L7.72056552,16.1877234 L7.72056552,14.7772403 L10.6950498,14.7772403 L10.6950498,18.9841269 C10.1382749,19.1736968 9.0827153,19.4343801 8.02859183,19.4343801 C6.57086475,19.4343801 5.51619654,19.0671752 4.78129133,18.35609 C4.04643564,17.6690229 3.64372343,16.6259429 3.65570773,15.4531153 C3.66719682,12.7986417 5.59934383,11.281934 8.21816172,11.281934 C9.24881181,11.281934 10.0424005,11.4832901 10.4337722,11.6729095 L10.0545829,13.1182561 C9.61621489,12.9286862 9.07092909,12.7749702 8.19359885,12.7749702 C6.6893707,12.7749702 5.55115901,13.6282328 5.55115901,15.3578847 C5.55145614,17.0051322 6.58299762,17.9766035 8.06409904,17.9766035 Z M12.1059291,19.3512824 L12.1059291,11.3650318 L13.9186788,11.3650318 L13.9186788,19.3512824 L12.1059291,19.3512824 Z M20.1643827,14.6709662 L20.1643827,16.1401824 L17.2964201,16.1401824 L17.2964201,19.3512824 L15.4835218,19.3512824 L15.4835218,11.3650318 L20.366234,11.3650318 L20.366234,12.845737 L17.2964201,12.845737 L17.2964201,14.6709167 L20.1643827,14.6709167 L20.1643827,14.6709662 Z M20.9280106,9.75675808 L3.27835074,9.75675808 L3.27835074,1.06992096 L15.6683871,1.06992096 L15.6683871,6.54258774 C15.6683871,6.83808501 15.9081227,7.07742442 16.2032238,7.07742442 L20.9280106,7.07742442 L20.9280106,9.75675808 L20.9280106,9.75675808 Z" id="Shape"></path>
                </g>
            </g>
        </g>
    </g>
</svg>