<?xml version="1.0" encoding="UTF-8"?>
<svg width="30px" height="26px" viewBox="0 0 30 26" version="1.1" xmlns="http://www.w3.org/2000/svg" xmlns:xlink="http://www.w3.org/1999/xlink">
    <!-- Generator: sketchtool 60 (101010) - https://sketch.com -->
    <title>33E6746B-D86A-4DA7-9AB5-2E5B47F75FE7</title>
    <desc>Created with sketchtool.</desc>
    <g id="Design" stroke="none" stroke-width="1" fill="none" fill-rule="evenodd">
        <g id="RAEV-4-Copy" transform="translate(-190.000000, -141.000000)">
            <rect fill="#FFFFFF" x="0" y="0" width="1366" height="768"></rect>
            <path d="M164,114 L791,114 C793.761424,114 796,116.238576 796,119 L796,595 C796,597.761424 793.761424,600 791,600 L164,600 C161.238576,600 159,597.761424 159,595 L159,119 C159,116.238576 161.238576,114 164,114 Z" id="Rectangle" stroke="#ECEBEA" stroke-dasharray="4"></path>
            <g id="Group-2" transform="translate(190.000000, 135.000000)" fill="#62636B" fill-rule="nonzero">
                <g id="noun_Image_410377" transform="translate(0.000000, 6.000000)">
                    <g id="Group">
                        <path d="M28.02,0.048 L1.98,0.048 C0.9,0.048 0.012,0.924 0.012,2.016 L0.012,23.724 C0.012,24.804 0.9,25.692 1.98,25.692 L28.032,25.692 C29.112,25.692 30,24.816 30,23.724 L30,2.016 C29.988,0.924 29.112,0.048 28.02,0.048 Z M1.524,2.016 C1.524,1.764 1.728,1.56 1.98,1.56 L28.032,1.56 C28.284,1.56 28.488,1.764 28.488,2.016 L28.488,18.336 L26.748,16.584 C26.112,15.936 25.356,15.468 24.564,15.216 C23.184,14.76 21.948,14.844 20.472,15.48 L19.212,15.888 C17.508,16.284 16.212,15.732 15.108,14.124 L13.38,11.628 L13.344,11.568 C12.408,10.44 11.04,9.756 9.576,9.672 C8.112,9.6 6.672,10.14 5.616,11.172 L1.536,15.372 L1.536,2.016 L1.524,2.016 Z M28.476,23.724 C28.476,23.976 28.272,24.18 28.02,24.18 L1.98,24.18 C1.728,24.18 1.524,23.976 1.524,23.724 L1.524,17.532 L6.672,12.228 C7.428,11.484 8.424,11.112 9.48,11.172 C10.524,11.232 11.472,11.7 12.144,12.492 L13.848,14.964 C15.324,17.1 17.244,17.892 19.584,17.34 L20.964,16.908 L21.036,16.884 C22.188,16.392 23.076,16.32 24.096,16.656 C24.66,16.836 25.2,17.184 25.668,17.652 L28.332,20.328 C28.38,20.376 28.428,20.412 28.476,20.448 L28.476,23.724 Z" id="Shape"></path>
                        <path d="M20.28,11.796 C18.324,11.796 16.728,10.2 16.728,8.244 C16.728,6.288 18.324,4.692 20.28,4.692 C22.236,4.692 23.832,6.288 23.832,8.244 C23.832,10.2 22.236,11.796 20.28,11.796 Z M20.28,6.216 C19.152,6.216 18.24,7.128 18.24,8.256 C18.24,9.384 19.152,10.296 20.28,10.296 C21.408,10.296 22.32,9.384 22.32,8.256 C22.32,7.128 21.408,6.216 20.28,6.216 Z" id="Shape"></path>
                    </g>
                </g>
            </g>
        </g>
    </g>
</svg>