<?xml version="1.0" encoding="UTF-8"?>
<svg width="15px" height="14px" viewBox="0 0 15 14" version="1.1" xmlns="http://www.w3.org/2000/svg" xmlns:xlink="http://www.w3.org/1999/xlink">
    <!-- Generator: sketchtool 60 (101010) - https://sketch.com -->
    <title>C00922A7-4515-4114-A78F-06452CE3F41B</title>
    <desc>Created with sketchtool.</desc>
    <g id="Design" stroke="none" stroke-width="1" fill="none" fill-rule="evenodd">
        <g id="RAEV-1" transform="translate(-451.000000, -2051.000000)">
            <rect fill="#FFFFFF" x="0" y="0" width="1366" height="3895"></rect>
            <g id="Group-17" transform="translate(339.000000, 2021.000000)" fill="#0A8080" fill-rule="nonzero">
                <g id="Group-10" transform="translate(11.000000, 0.000000)">
                    <g id="Group-18" transform="translate(29.000000, 30.000000)">
                        <g id="noun_Star_3038607" transform="translate(72.000000, 0.000000)">
                            <path d="M3.539928,8.95514781 L2.73226977,13.5825688 C2.71044117,13.7181448 2.76501267,13.8501529 2.87779378,13.932212 C2.99057488,14.0107034 3.13973699,14.0214067 3.25979429,13.9607543 L7.49818095,11.7737003 L11.7365676,13.9607543 C11.7911391,13.9892966 11.8493487,14 11.9075583,14 C11.9839584,14 12.0567204,13.9785933 12.1222062,13.932212 C12.2349873,13.8537207 12.2895588,13.7181448 12.2677302,13.5825688 L11.460072,8.95158002 L14.8908004,5.67278287 C14.9890291,5.5764526 15.0254101,5.43730887 14.9817529,5.30530071 C14.9380957,5.17686035 14.8253146,5.08053007 14.6870668,5.06269113 L9.94662234,4.3883792 L7.82560996,0.181957187 C7.70191456,-0.0606523955 7.29444734,-0.0606523955 7.17439004,0.181957187 L5.05337766,4.39194699 L0.31293318,5.06982671 C0.174685375,5.08766565 0.0619042703,5.18399592 0.0182470686,5.31243629 C-0.025410133,5.44087666 0.0109708684,5.58358818 0.109199572,5.67991845 L3.539928,8.95514781 Z M5.34442567,5.0733945 C5.46448297,5.05555556 5.56634978,4.9841998 5.61728318,4.87716616 L7.49818095,1.14525994 L9.37544062,4.87716616 C9.43001212,4.9841998 9.53187893,5.05555556 9.64829813,5.0733945 L13.8466657,5.67278287 L10.8088521,8.57696228 C10.7215377,8.65902141 10.6851567,8.77675841 10.7033472,8.89449541 L11.4200529,12.9974516 L7.66553356,11.0601427 C7.61096205,11.0316004 7.55275245,11.020897 7.49454285,11.020897 C7.43633325,11.020897 7.37812365,11.0351682 7.32355214,11.0601427 L3.5726709,12.9938838 L4.28937663,8.89092762 C4.31120523,8.77675841 4.27118613,8.65545362 4.18387173,8.5733945 L1.14605811,5.66921509 L5.34442567,5.0733945 Z" id="Shape"></path>
                        </g>
                    </g>
                </g>
            </g>
        </g>
    </g>
</svg>