<?xml version="1.0" encoding="UTF-8"?>
<svg width="121px" height="109px" viewBox="0 0 121 109" version="1.1" xmlns="http://www.w3.org/2000/svg" xmlns:xlink="http://www.w3.org/1999/xlink">
    <!-- Generator: sketchtool 60 (101010) - https://sketch.com -->
    <title>671FDFA0-6D84-40B0-9681-1BF4826E7DED</title>
    <desc>Created with sketchtool.</desc>
    <g id="Design" stroke="none" stroke-width="1" fill="none" fill-rule="evenodd">
        <g id="RAEV-4-Copy" transform="translate(-418.000000, -251.000000)">
            <rect fill="#FFFFFF" x="0" y="0" width="1366" height="768"></rect>
            <path d="M164,114 L791,114 C793.761424,114 796,116.238576 796,119 L796,595 C796,597.761424 793.761424,600 791,600 L164,600 C161.238576,600 159,597.761424 159,595 L159,119 C159,116.238576 161.238576,114 164,114 Z" id="Rectangle" stroke="#ECEBEA" stroke-dasharray="4"></path>
            <g id="Group-3" transform="translate(330.000000, 250.000000)" fill="#0A8080" fill-rule="nonzero" opacity="0.245303199">
                <g id="Group-6">
                    <g id="noun_Upload_1237665" transform="translate(88.000000, 0.000000)">
                        <g id="Group" transform="translate(0.000000, 0.858690)">
                            <path d="M60.5,0.19131 C42.4313217,0.19131 27.5349645,13.6542437 24.9208006,31.3039075 C10.7069197,33.9078275 0.01813548,46.0476057 0,60.7031257 C0,77.3696657 13.5799806,90.94131 30.25,90.94131 L48.4118157,90.94131 L48.4118157,84.9031257 L30.25,84.9031257 C16.8479105,84.9031257 6.05013431,74.0996407 6.05,60.7031257 C6.0653065,48.3278507 15.3532369,38.0016925 27.6622069,36.6803725 L30.1436525,36.4204113 L30.3563475,33.92715 C31.6950195,18.2479706 44.7601506,6.24131 60.5,6.24131 C77.2572598,6.239495 90.7758093,19.7637037 90.7736313,36.5149425 C90.7681803,37.4248625 90.7191995,38.3382425 90.6318374,39.2445325 L90.3127907,42.5649413 L93.775,42.5649413 C105.506398,42.5649413 114.95,52.0014107 114.95,63.7281257 C114.95,75.4554457 105.506488,84.9031257 93.775,84.9031257 L72.6472626,84.9031257 L72.6472626,90.94131 L93.775,90.94131 C108.774384,90.94131 121,78.7248657 121,63.7281257 C121,49.7992107 110.308767,38.7005806 96.7881843,37.1293962 C96.7925887,36.9297462 96.8224213,36.7206425 96.8236313,36.5149425 C96.8262328,16.4936787 80.5257965,0.18889 60.5,0.19131 Z M60.5,50.3637725 L40.2112306,70.6525382 L44.4887694,74.9300818 L57.475,61.9438476 L57.475,109.09131 L63.525,109.09131 L63.525,61.9438476 L76.5112282,74.9300818 L80.7887718,70.6525382 L60.5,50.3637725 Z" id="Shape"></path>
                        </g>
                    </g>
                </g>
            </g>
        </g>
    </g>
</svg>